<?xml version="1.0" standalone="no"?>
<!DOCTYPE svg PUBLIC "-//W3C//DTD SVG 20010904//EN"
 "http://www.w3.org/TR/2001/REC-SVG-20010904/DTD/svg10.dtd">
<svg version="1.0" xmlns="http://www.w3.org/2000/svg"
 width="268.000000pt" height="271.000000pt" viewBox="0 0 268.000000 271.000000"
 preserveAspectRatio="xMidYMid meet">

<g transform="translate(0.000000,271.000000) scale(0.100000,-0.100000)"
fill="#000000" stroke="none">
<path d="M363 2556 c-61 -20 -122 -58 -171 -107 -90 -91 -127 -192 -120 -328
7 -128 35 -189 122 -277 82 -82 147 -112 262 -121 72 -6 168 10 180 29 4 5 -9
25 -27 44 -30 31 -38 34 -88 34 -214 0 -361 164 -329 366 5 31 15 69 24 86 26
50 85 108 138 136 43 22 64 27 131 27 67 0 89 -4 137 -28 111 -54 171 -151
174 -279 2 -81 6 -89 57 -122 l27 -18 16 38 c12 29 15 61 12 129 -3 75 -9 101
-35 158 -42 89 -121 168 -210 210 -59 27 -80 32 -163 34 -60 2 -110 -2 -137
-11z"/>
<path d="M2003 2551 c-167 -62 -283 -227 -283 -404 0 -54 18 -134 32 -143 5
-3 26 5 47 19 l38 26 5 88 c7 138 58 226 162 281 69 36 196 38 268 5 106 -48
178 -163 178 -283 0 -173 -129 -300 -311 -309 -74 -3 -78 -4 -115 -42 -21 -21
-35 -41 -32 -45 13 -12 85 -24 153 -24 115 0 212 39 296 117 59 55 94 113 114
189 55 211 -46 421 -245 512 -76 35 -230 42 -307 13z"/>
<path d="M424 2241 c-44 -27 -69 -91 -53 -140 16 -49 52 -86 99 -100 28 -8 54
-28 87 -68 94 -110 139 -161 241 -271 l102 -111 0 -220 0 -220 -164 -180 c-91
-100 -177 -196 -191 -215 -14 -18 -38 -36 -53 -39 -44 -9 -96 -49 -116 -91
-16 -33 -17 -43 -6 -79 14 -47 56 -93 94 -103 69 -17 146 30 165 103 10 35 35
60 206 207 107 92 206 173 218 179 17 9 93 12 268 11 134 -1 249 -3 255 -3 6
-1 100 -78 210 -172 174 -149 201 -176 214 -214 8 -25 30 -59 48 -77 28 -29
39 -33 85 -33 67 0 109 29 132 89 16 42 16 46 -3 88 -21 47 -64 81 -117 92
-21 5 -44 23 -72 59 -22 29 -105 122 -183 207 -78 85 -146 165 -151 178 -12
32 -11 384 1 417 6 15 81 104 168 198 87 95 172 191 190 214 21 26 44 44 63
48 44 10 97 60 110 105 10 33 9 44 -9 82 -26 53 -66 78 -125 78 -63 0 -107
-32 -130 -97 -17 -47 -33 -63 -180 -185 -89 -74 -183 -150 -208 -169 l-46 -35
-260 0 -261 1 -43 31 c-24 18 -102 83 -174 144 -71 62 -142 122 -158 133 -16
13 -32 38 -38 61 -6 23 -27 56 -49 78 -33 34 -43 38 -86 38 -30 0 -61 -7 -80
-19z"/>
<path d="M385 940 c-233 -58 -369 -306 -295 -541 23 -75 43 -106 107 -173 56
-58 144 -102 233 -118 173 -30 360 71 442 239 30 64 32 75 33 175 0 83 -3 111
-15 122 -14 14 -19 13 -51 -10 -35 -25 -36 -27 -42 -105 -9 -132 -73 -230
-182 -280 -130 -59 -293 -13 -372 105 -41 60 -53 103 -53 187 0 117 60 208
180 270 35 18 64 24 129 26 81 2 85 3 112 35 15 18 25 36 23 40 -3 4 -28 14
-56 23 -54 16 -142 18 -193 5z"/>
<path d="M2048 935 c-26 -9 -49 -19 -52 -24 -3 -4 9 -22 27 -38 29 -28 39 -31
113 -35 103 -6 174 -38 238 -109 52 -58 76 -121 76 -199 0 -81 -24 -142 -81
-204 -66 -72 -130 -100 -229 -101 -62 0 -85 5 -132 28 -107 53 -168 156 -168
288 0 67 -1 70 -32 89 -48 30 -61 23 -78 -43 -28 -113 18 -261 111 -356 97
-99 230 -144 362 -122 97 16 161 47 233 114 219 203 162 561 -112 689 -80 37
-200 47 -276 23z"/>
</g>
</svg>
